#N canvas 927 165 450 300 10;
#X declare -lib mrpeach;
#X obj 33 165 unpackOSC;
#X obj 26 80 packOSC;
#X msg 170 126 devices;
#X msg 152 166 open 6 \, baud 57600;
#X obj 39 120 o.io.slipserial;
#X obj 31 199 print from;
#X msg 135 66 close;
#X msg 27 28 /led 192 3.2;
#X connect 0 0 5 0;
#X connect 1 0 4 0;
#X connect 2 0 4 1;
#X connect 3 0 4 1;
#X connect 4 0 0 0;
#X connect 6 0 4 1;
#X connect 7 0 1 0;
