#N canvas 526 258 450 300 10;
#X declare -lib mrpeach;
#X obj 128 174 unpackOSC;
#X obj 121 89 packOSC;
#X msg 265 135 devices;
#X msg 247 175 open 6 \, baud 57600;
#X obj 134 129 o.io.slipserial;
#X msg 122 37 /led 1 3;
#X obj 126 208 print from;
#X connect 0 0 6 0;
#X connect 1 0 4 0;
#X connect 2 0 4 1;
#X connect 3 0 4 1;
#X connect 4 0 0 0;
#X connect 5 0 1 0;
